<svg xmlns="http://www.w3.org/2000/svg" width="1200" height="1600" viewBox="0 0 1200 1600">
  <defs>
    <linearGradient id="sky" x1="0" y1="0" x2="0" y2="1">
      <stop offset="0%" stop-color="#b7d8f5"/>
      <stop offset="45%" stop-color="#dff1ff"/>
      <stop offset="100%" stop-color="#f6fbff"/>
    </linearGradient>
    <linearGradient id="ground" x1="0" y1="0" x2="0" y2="1">
      <stop offset="0%" stop-color="#9ed4a6"/>
      <stop offset="100%" stop-color="#74b38a"/>
    </linearGradient>
    <linearGradient id="hill" x1="0" y1="0" x2="1" y2="1">
      <stop offset="0%" stop-color="#88c79b"/>
      <stop offset="100%" stop-color="#5ca37b"/>
    </linearGradient>
    <radialGradient id="sun" cx="0.65" cy="0.2" r="0.25">
      <stop offset="0%" stop-color="#fff1b6"/>
      <stop offset="100%" stop-color="rgba(255, 241, 182, 0)"/>
    </radialGradient>
    <filter id="soft" x="-20%" y="-20%" width="140%" height="140%">
      <feGaussianBlur stdDeviation="12"/>
    </filter>
  </defs>

  <rect width="1200" height="1600" fill="url(#sky)"/>
  <circle cx="820" cy="220" r="200" fill="url(#sun)"/>

  <path d="M0 860 C220 700 520 720 760 870 C930 980 1080 1020 1200 1060 L1200 1600 L0 1600 Z" fill="url(#ground)"/>
  <path d="M0 980 C220 860 480 900 680 1020 C870 1140 1030 1200 1200 1240 L1200 1600 L0 1600 Z" fill="url(#hill)" opacity="0.95"/>

  <g opacity="0.8">
    <path d="M120 760 C150 690 230 690 260 760 C230 820 150 820 120 760 Z" fill="#7cc091"/>
    <path d="M170 720 C190 660 240 660 260 720 C240 760 190 760 170 720 Z" fill="#6cb082"/>
    <path d="M210 760 C240 700 310 700 340 760 C310 820 240 820 210 760 Z" fill="#7fc79b"/>
  </g>

  <g opacity="0.7">
    <path d="M860 900 C900 820 980 820 1020 900 C980 980 900 980 860 900 Z" fill="#6fb98f"/>
    <path d="M900 860 C930 800 980 800 1010 860 C980 920 930 920 900 860 Z" fill="#5aa77e"/>
    <path d="M940 900 C980 840 1050 840 1090 900 C1050 980 980 980 940 900 Z" fill="#76c199"/>
  </g>

  <g fill="#8bcf9f" opacity="0.6">
    <circle cx="320" cy="1120" r="36"/>
    <circle cx="370" cy="1090" r="30"/>
    <circle cx="420" cy="1120" r="34"/>
  </g>

  <g fill="#6faa88" opacity="0.55">
    <circle cx="860" cy="1180" r="38"/>
    <circle cx="910" cy="1150" r="32"/>
    <circle cx="970" cy="1180" r="36"/>
  </g>

  <g transform="translate(720 980)">
    <path d="M60 0 C90 0 120 20 130 60 C140 100 110 140 70 150 C30 160 0 140 0 100 C0 50 20 10 60 0 Z" fill="#8a5a3c"/>
    <path d="M45 -6 L20 -30 L40 -20 Z" fill="#8a5a3c"/>
    <path d="M85 -6 L110 -30 L90 -20 Z" fill="#8a5a3c"/>
    <path d="M45 -6 L30 -24 L46 -16 Z" fill="#f4d7c2"/>
    <path d="M85 -6 L100 -24 L84 -16 Z" fill="#f4d7c2"/>
    <ellipse cx="52" cy="62" rx="10" ry="6" fill="#2f2a28"/>
    <ellipse cx="90" cy="62" rx="10" ry="6" fill="#2f2a28"/>
    <circle cx="53" cy="62" r="2" fill="#fff"/>
    <circle cx="91" cy="62" r="2" fill="#fff"/>
    <path d="M70 76 C64 86 76 86 70 96" stroke="#2f2a28" stroke-width="4" fill="none" stroke-linecap="round"/>
    <path d="M48 86 C58 92 62 92 70 92 C78 92 82 92 92 86" stroke="#2f2a28" stroke-width="3" fill="none" stroke-linecap="round"/>
  </g>

  <g opacity="0.35" filter="url(#soft)">
    <circle cx="200" cy="260" r="70" fill="#e1f0ff"/>
    <circle cx="980" cy="360" r="90" fill="#d7ecff"/>
  </g>
</svg>
